<?xml version="1.0" encoding="UTF-8"?>
<!DOCTYPE svg PUBLIC "-//W3C//DTD SVG 1.1//EN" "http://www.w3.org/Graphics/SVG/1.1/DTD/svg11.dtd">
<!-- Creator: CorelDRAW -->
<svg xmlns="http://www.w3.org/2000/svg" xml:space="preserve" width="2048px" height="2048px" style="shape-rendering:geometricPrecision; text-rendering:geometricPrecision; image-rendering:optimizeQuality; fill-rule:evenodd; clip-rule:evenodd"
viewBox="0 0 2048 2048"
 xmlns:xlink="http://www.w3.org/1999/xlink">
 <defs>
  <style type="text/css">
   <![CDATA[
    .fil2 {fill:none}
    .fil1 {fill:#212121}
    .fil0 {fill:#212121;fill-rule:nonzero}
   ]]>
  </style>
 </defs>
 <g id="Layer_x0020_1">
  <metadata id="CorelCorpID_0Corel-Layer"/>
  <path class="fil0" d="M964.648 1128.6c12.4949,-12.4949 12.4949,-32.7555 0,-45.2504 -12.4949,-12.4949 -32.7555,-12.4949 -45.2504,0l-191.56 191.56 -0.111024 0.111024c-0.83504,0.77126 -1.62638,1.58386 -2.37166,2.43425 -46.4941,45.189 -106.863,67.7056 -167.201,67.5438 -60.789,-0.162992 -121.622,-23.5276 -168.184,-70.089 -46.6465,-46.6465 -69.9709,-107.791 -69.9709,-168.934 0,-61.1434 23.3244,-122.288 69.9709,-168.933l0.0011811 -0.0011811c46.6465,-46.6453 107.79,-69.9709 168.933,-69.9709 61.1434,0 122.286,23.3256 168.932,69.9709l0.0011811 0.0011811 117.995 117.995c12.4949,12.4949 32.7555,12.4949 45.2504,0 12.4949,-12.4949 12.4949,-32.7555 0,-45.2504l-117.995 -117.995 -0.0011811 -0.0011811c-59.1473,-59.1461 -136.665,-88.7221 -214.182,-88.7221 -77.517,0 -155.036,29.576 -214.184,88.7221l-0.0011811 0.0011811c-59.1473,59.1461 -88.7221,136.667 -88.7221,214.184 0,77.517 29.5748,155.038 88.7221,214.185 58.8532,58.852 136.069,88.3831 213.435,88.5898 76.3253,0.204331 152.734,-28.3063 211.667,-85.5225 0.774804,-0.641339 1.52717,-1.32284 2.25236,-2.04803l-0.00236221 -0.00236221 1.01693 -1.01693 191.56 -191.56z"/>
  <path class="fil0" d="M964.648 1128.6c12.4949,-12.4949 12.4949,-32.7555 0,-45.2504 -12.4949,-12.4949 -32.7555,-12.4949 -45.2504,0l-191.56 191.56 -1.01693 1.01693 -0.00236221 -0.00236221c-0.725197,0.725197 -1.40669,1.47756 -2.04803,2.25236 -57.215,58.9323 -85.7268,135.344 -85.5213,211.667 0.206693,77.367 29.7366,154.583 88.5887,213.435 59.1473,59.1473 136.668,88.7221 214.185,88.7221 77.517,0 155.038,-29.5748 214.184,-88.7221l0.0011811 -0.0011811c59.1461,-59.1473 88.7221,-136.667 88.7221,-214.184 0,-77.517 -29.576,-155.035 -88.7221,-214.182l-0.0011811 -0.0011811 -117.993 -117.995c-12.4949,-12.4949 -32.7555,-12.4949 -45.2504,0 -12.4949,12.4949 -12.4949,32.7555 0,45.2504l117.993 117.995 0.0011811 0.0011811c46.6453,46.6465 69.9709,107.789 69.9709,168.932 0,61.1434 -23.3256,122.287 -69.9709,168.933l-0.0011811 0.0011811c-46.6453,46.6465 -107.79,69.9709 -168.933,69.9709 -61.1434,0 -122.288,-23.3244 -168.934,-69.9709 -46.5626,-46.5626 -69.9249,-107.394 -70.0878,-168.184 -0.162992,-60.3367 22.3547,-120.706 67.5426,-167.201 0.850394,-0.745276 1.66299,-1.53662 2.43425,-2.37166l0.111024 -0.111024 191.56 -191.56z"/>
  <path class="fil0" d="M685.062 979.818c34.839,34.839 52.2603,80.5005 52.2603,126.158 0,45.6555 -17.4213,91.3182 -52.2603,126.157 -34.839,34.839 -80.5016,52.2603 -126.157,52.2603 -45.6579,0 -91.3194,-17.4213 -126.158,-52.2603 -34.839,-34.839 -52.2603,-80.5016 -52.2603,-126.157 0,-45.6579 17.4213,-91.3194 52.2603,-126.158 34.839,-34.839 80.5005,-52.2603 126.158,-52.2603 45.6555,0 91.3182,17.4213 126.157,52.2603zm-11.7413 126.158c0,-29.2843 -11.1709,-58.5697 -33.5091,-80.9079 -22.3382,-22.3382 -51.6225,-33.5091 -80.9068,-33.5091 -29.2843,0 -58.5697,11.1709 -80.9079,33.5091 -22.3382,22.3382 -33.5091,51.6237 -33.5091,80.9079 0,29.2843 11.1709,58.5685 33.5091,80.9068 22.3382,22.3382 51.6237,33.5091 80.9079,33.5091 29.2843,0 58.5685,-11.1709 80.9068,-33.5091 22.3382,-22.3382 33.5091,-51.6225 33.5091,-80.9068z"/>
  <path class="fil0" d="M1022.93 1408.19c-22.3382,-22.3382 -51.6237,-33.5091 -80.9079,-33.5091 -29.2843,0 -58.5685,11.1709 -80.9068,33.5091 -22.3382,22.3382 -33.5091,51.6237 -33.5091,80.9079 0,29.2843 11.1709,58.5685 33.5091,80.9068 22.3382,22.3382 51.6225,33.5091 80.9068,33.5091 29.2843,0 58.5697,-11.1709 80.9079,-33.5091 22.3382,-22.3382 33.5091,-51.6225 33.5091,-80.9068 0,-29.2843 -11.1709,-58.5697 -33.5091,-80.9079zm-80.9079 -97.5107c45.6579,0 91.3194,17.4213 126.158,52.2603 34.839,34.839 52.2603,80.5005 52.2603,126.158 0,45.6555 -17.4213,91.3182 -52.2603,126.157 -34.839,34.839 -80.5005,52.2603 -126.158,52.2603 -45.6555,0 -91.3182,-17.4213 -126.157,-52.2603 -34.839,-34.839 -52.2603,-80.5016 -52.2603,-126.157 0,-45.6579 17.4213,-91.3194 52.2603,-126.158 34.839,-34.839 80.5016,-52.2603 126.157,-52.2603z"/>
  <path class="fil0" d="M1515.16 431.263c12.4949,-12.4949 12.4949,-32.7555 0,-45.2504 -12.4949,-12.4949 -32.7555,-12.4949 -45.2504,0l-623.924 623.924c-12.4949,12.4949 -12.4949,32.7555 0,45.2504 12.4949,12.4949 32.7555,12.4949 45.2504,0l623.924 -623.924z"/>
  <path class="fil0" d="M1472.41 383.883c-13.6689,11.1142 -15.7394,31.2059 -4.6252,44.8748 11.1142,13.6689 31.2059,15.7394 44.8748,4.6252 46.1197,-37.4563 89.8843,-69.0804 131.329,-89.3871 29.1803,-14.2984 57.1772,-22.9807 84.0249,-24.0059 -1.02638,26.8488 -9.70749,54.8457 -24.0047,84.0249 -20.3067,41.4449 -51.9307,85.2083 -89.3883,131.328 -11.1142,13.6689 -9.04371,33.7607 4.6252,44.8748 13.6689,11.1142 33.7607,9.04371 44.8748,-4.6252 40.0725,-49.3394 74.2465,-96.8576 97.1387,-143.578 23.8347,-48.6437 35.3658,-96.2847 28.8118,-143.836 -0.779528,-14.8087 -11.8299,-27.5528 -27.065,-29.9103l-0.0188977 0.124016c-48.6012,-7.52245 -97.2757,3.98977 -146.998,28.3536 -46.7209,22.8921 -94.2402,57.0662 -143.58,97.1375z"/>
  <path class="fil0" d="M1661.99 578.093c12.4949,-12.4949 12.4949,-32.7555 0,-45.2504 -12.4949,-12.4949 -32.7555,-12.4949 -45.2504,0l-623.924 623.924c-12.4949,12.4949 -12.4949,32.7555 0,45.2504 12.4949,12.4949 32.7555,12.4949 45.2504,0l623.924 -623.924z"/>
  <path class="fil0" d="M1357.3 577.859c1.03583,-17.6043 -12.3957,-32.7154 -30,-33.7512 -17.6043,-1.03583 -32.7154,12.3957 -33.7512,30l-8.74725 143.838 -365.404 365.404c-12.4949,12.4949 -12.4949,32.7555 0,45.2504 12.4949,12.4949 32.7555,12.4949 45.2504,0l373.598 -373.598c5.51457,-5.36103 9.1252,-12.7134 9.62835,-20.9941l-31.9418 -1.94291 31.8756 1.87559 9.49135 -156.082z"/>
  <path class="fil0" d="M1482.81 675.817c-0.966142,17.6043 12.5209,32.6599 30.1252,33.626 17.6043,0.966142 32.6599,-12.5209 33.626,-30.1252l8.16024 -144.397 221.025 -221.025c12.4949,-12.4949 12.4949,-32.7555 0,-45.2504 -12.4949,-12.4949 -32.7555,-12.4949 -45.2504,0l-229.331 229.331c-5.50985,5.38701 -9.10276,12.7677 -9.57166,21.0673l31.9488 1.80591 -31.8756 -1.7504 -8.85591 156.717z"/>
  <circle class="fil1" transform="matrix(0.814675 0.814675 -0.814675 0.814675 1420.66 614.64)" r="24.9992"/>
 </g>
 <rect class="fil2" width="2048" height="2048"/>
</svg>
